<svg xmlns="http://www.w3.org/2000/svg" width="1200" height="630" viewBox="0 0 1200 630" role="img" aria-labelledby="title desc">
  <title id="title">Waffy Ahmed Portfolio Preview</title>
  <desc id="desc">A browser-style preview card for Waffy Ahmed's software engineering portfolio.</desc>
  <defs>
    <linearGradient id="pageBg" x1="0" x2="1" y1="0" y2="1">
      <stop offset="0%" stop-color="#dbeafe"/>
      <stop offset="52%" stop-color="#bfdbfe"/>
      <stop offset="100%" stop-color="#fef3c7"/>
    </linearGradient>
    <linearGradient id="panelBg" x1="0" x2="1" y1="0" y2="1">
      <stop offset="0%" stop-color="#f8fafc"/>
      <stop offset="100%" stop-color="#eff6ff"/>
    </linearGradient>
    <filter id="shadow" x="-20%" y="-20%" width="140%" height="140%">
      <feDropShadow dx="0" dy="18" stdDeviation="18" flood-color="#0f172a" flood-opacity="0.18"/>
    </filter>
  </defs>

  <rect width="1200" height="630" fill="url(#pageBg)"/>
  <circle cx="1070" cy="96" r="150" fill="#facc15" opacity="0.28"/>
  <circle cx="128" cy="548" r="180" fill="#0ea5e9" opacity="0.18"/>

  <g filter="url(#shadow)">
    <rect x="86" y="70" width="1028" height="490" rx="28" fill="#ffffff"/>
    <rect x="86" y="70" width="1028" height="72" rx="28" fill="#f8fafc"/>
    <path d="M86 114h1028" stroke="#e2e8f0" stroke-width="2"/>
    <circle cx="130" cy="106" r="9" fill="#ef4444"/>
    <circle cx="164" cy="106" r="9" fill="#f59e0b"/>
    <circle cx="198" cy="106" r="9" fill="#22c55e"/>
    <rect x="250" y="88" width="610" height="36" rx="18" fill="#e2e8f0"/>
    <text x="284" y="112" fill="#475569" font-family="Arial, Helvetica, sans-serif" font-size="20">https://waffy.netlify.app</text>

    <rect x="126" y="172" width="948" height="336" rx="20" fill="url(#panelBg)" stroke="#dbeafe" stroke-width="2"/>

    <g transform="translate(172 218)">
      <text x="0" y="0" fill="#1f2937" font-family="Georgia, 'Times New Roman', serif" font-size="66" font-weight="700">Waffy Ahmed</text>
      <text x="2" y="48" fill="#334155" font-family="Arial, Helvetica, sans-serif" font-size="30" font-weight="700">Software Engineer | Georgia Tech</text>
      <text x="2" y="104" fill="#475569" font-family="Arial, Helvetica, sans-serif" font-size="24">Reliability, Kubernetes, deployment automation,</text>
      <text x="2" y="140" fill="#475569" font-family="Arial, Helvetica, sans-serif" font-size="24">observability, and high-throughput systems.</text>

      <rect x="2" y="188" width="166" height="42" rx="21" fill="#2563eb"/>
      <text x="30" y="216" fill="#ffffff" font-family="Arial, Helvetica, sans-serif" font-size="19" font-weight="700">View Portfolio</text>
      <rect x="188" y="188" width="156" height="42" rx="21" fill="#1f2937"/>
      <text x="222" y="216" fill="#ffffff" font-family="Arial, Helvetica, sans-serif" font-size="19" font-weight="700">Resume</text>
    </g>

    <g transform="translate(760 210)">
      <rect x="0" y="0" width="254" height="230" rx="18" fill="#ffffff" stroke="#cbd5e1" stroke-width="2"/>
      <rect x="26" y="28" width="202" height="46" rx="12" fill="#dbeafe"/>
      <rect x="26" y="92" width="202" height="18" rx="9" fill="#93c5fd"/>
      <rect x="26" y="124" width="162" height="18" rx="9" fill="#bfdbfe"/>
      <rect x="26" y="164" width="86" height="36" rx="18" fill="#facc15"/>
      <path d="M142 176h58m-58 14h42" stroke="#64748b" stroke-width="9" stroke-linecap="round"/>
      <circle cx="204" cy="182" r="30" fill="#2563eb" opacity="0.9"/>
      <path d="M194 183l8 8 15-19" fill="none" stroke="#ffffff" stroke-width="6" stroke-linecap="round" stroke-linejoin="round"/>
    </g>
  </g>
</svg>
